<?xml version="1.0" standalone="no"?>
<!DOCTYPE svg PUBLIC "-//W3C//DTD SVG 20010904//EN"
 "http://www.w3.org/TR/2001/REC-SVG-20010904/DTD/svg10.dtd">
<svg version="1.0" xmlns="http://www.w3.org/2000/svg"
 width="1123.000000pt" height="1123.000000pt" viewBox="0 0 1123.000000 1123.000000"
 preserveAspectRatio="xMidYMid meet">
<metadata>
Created by potrace 1.14, written by Peter Selinger 2001-2017
</metadata>
<g transform="translate(0.000000,1123.000000) scale(0.100000,-0.100000)"
fill="#000000" stroke="none">
<path d="M10275 8911 c-22 -8 -51 -25 -64 -38 l-25 -22 -27 20 c-16 11 -31 24
-34 29 -3 5 -28 -3 -54 -18 -55 -30 -51 -15 -36 -163 4 -40 1 -49 -24 -73 -31
-30 -33 -52 -12 -148 15 -65 0 -231 -25 -280 -9 -18 -29 -31 -63 -43 -53 -17
-55 -23 -23 -73 9 -13 11 -26 6 -31 -16 -14 -276 -76 -364 -86 -65 -8 -148
-34 -200 -62 -38 -20 -56 -40 -107 -126 l-62 -102 14 -90 c13 -82 13 -91 -2
-100 -9 -5 -28 -22 -42 -37 -14 -15 -39 -32 -55 -38 -28 -10 -43 -13 -131 -24
-22 -3 -81 -18 -132 -33 l-92 -28 3 -56 c3 -51 21 -99 38 -99 21 0 -98 -135
-167 -189 -44 -34 -105 -82 -135 -106 -120 -98 -212 -159 -220 -146 -5 10 -29
11 -94 6 -96 -8 -98 -7 -67 54 11 21 22 57 25 79 3 23 14 52 25 64 12 12 21
34 21 49 0 24 41 88 63 97 4 2 7 9 7 15 0 13 -36 86 -68 139 -11 18 -23 46
-27 63 -3 16 -11 36 -17 42 -12 15 -54 17 -63 3 -3 -5 -13 -10 -21 -10 -30 0
-84 -51 -84 -79 0 -14 -4 -33 -9 -40 -8 -12 -11 -9 -16 12 -5 19 1 48 20 94
24 60 26 76 21 138 -11 112 -17 160 -24 166 -4 3 -32 14 -62 23 -30 10 -69 29
-87 42 -17 13 -43 24 -57 24 -32 0 -33 6 -3 31 13 11 38 18 63 19 29 0 52 9
83 31 24 18 39 35 34 40 -5 5 -41 11 -80 12 -59 3 -78 9 -117 35 -31 20 -56
29 -71 26 -19 -3 -26 1 -31 20 -4 16 -19 30 -44 40 -32 13 -44 13 -89 1 -28
-7 -52 -13 -54 -13 -12 -1 -63 -26 -103 -50 -35 -22 -64 -31 -102 -33 -46 -3
-56 1 -85 28 -29 27 -37 30 -84 26 -48 -4 -51 -3 -46 17 3 11 15 28 27 38 17
13 23 28 23 65 1 33 -3 47 -12 47 -31 0 -96 -50 -195 -150 -91 -92 -111 -107
-151 -116 -57 -13 -83 -4 -104 36 l-17 32 -21 -20 c-31 -29 -157 -63 -157 -43
0 14 138 132 270 230 l114 85 -44 13 c-24 7 -55 10 -69 7 -14 -2 -83 -7 -152
-10 -102 -4 -128 -2 -138 10 -7 8 -34 20 -62 27 -27 7 -49 16 -49 21 0 4 9 17
20 28 32 32 24 38 -42 34 -35 -2 -90 -6 -123 -8 -33 -3 -64 -5 -68 -5 -5 -1
-5 -11 -2 -22 7 -20 5 -21 -31 -15 -81 16 -111 35 -132 84 -11 26 -24 60 -27
75 -7 26 -11 28 -44 23 -20 -3 -37 -5 -37 -6 -1 0 1 -17 3 -38 3 -28 1 -39 -9
-39 -26 -1 -174 -15 -193 -19 -37 -8 -487 -16 -845 -16 -319 -1 -433 2 -720
17 -47 3 -139 7 -205 10 -218 9 -408 22 -465 30 -14 2 -59 6 -100 10 -41 3
-97 10 -125 15 -27 5 -63 12 -80 14 -16 3 -73 12 -125 20 -96 15 -150 22 -250
32 -30 3 -77 9 -105 14 -86 16 -228 41 -270 46 -22 3 -94 17 -160 31 -66 13
-129 26 -141 29 -100 20 -252 56 -311 73 -71 20 -303 72 -333 74 -8 1 -32 -5
-53 -12 -39 -13 -39 -13 -34 -60 6 -56 -24 -111 -60 -111 -23 0 -27 8 -24 42
2 16 -1 16 -40 3 -47 -17 -34 -24 -142 78 -22 20 -42 37 -46 37 -3 0 -23 -36
-44 -79 l-38 -78 17 -59 c10 -32 19 -66 21 -74 6 -21 4 -111 -2 -121 -3 -4 2
-15 11 -24 12 -12 14 -24 8 -53 -10 -48 -11 -92 -2 -119 6 -18 0 -31 -27 -60
-38 -41 -38 -41 -35 -96 1 -27 -9 -56 -34 -103 -34 -60 -50 -134 -33 -150 4
-4 -2 -19 -12 -33 -24 -34 -34 -66 -36 -116 -2 -47 -19 -82 -52 -109 -18 -13
-23 -25 -19 -41 4 -17 0 -25 -19 -33 -14 -6 -25 -17 -26 -24 -1 -24 -7 -63
-17 -106 -6 -23 -6 -45 -1 -47 4 -3 4 -16 0 -28 -10 -25 -8 -69 3 -110 5 -17
4 -32 -4 -41 -8 -11 -8 -20 -1 -35 19 -35 12 -60 -50 -184 -54 -109 -60 -128
-58 -177 1 -39 8 -62 22 -77 26 -29 35 -86 35 -219 0 -63 4 -120 11 -132 6
-11 11 -28 11 -37 0 -9 13 -35 28 -58 15 -23 29 -58 31 -78 1 -19 4 -44 6 -55
2 -10 4 -26 4 -35 1 -13 10 -15 46 -12 40 5 45 3 45 -16 0 -12 -4 -21 -10 -21
-10 0 -60 -73 -60 -87 0 -5 11 -20 24 -34 24 -26 76 -120 76 -138 0 -5 -11
-23 -25 -39 l-25 -30 19 -44 c10 -23 40 -88 66 -143 26 -55 60 -128 76 -161
33 -70 38 -134 15 -189 l-15 -35 42 -11 c23 -7 55 -24 70 -38 22 -20 38 -26
79 -26 l52 0 28 -58 c27 -53 31 -57 64 -57 49 0 73 -19 150 -121 41 -53 75
-89 86 -89 25 0 36 -27 49 -115 16 -107 35 -124 159 -140 25 -4 68 -11 95 -16
88 -17 180 -21 220 -10 21 6 41 9 43 7 2 -2 5 -18 7 -36 3 -18 6 -33 7 -34 2
-1 69 -45 150 -99 82 -53 152 -97 158 -97 5 0 10 -4 10 -10 0 -5 4 -10 9 -10
5 0 74 -40 153 -89 l143 -90 130 -6 c72 -4 154 -8 183 -11 30 -2 102 -6 160
-9 59 -3 133 -7 165 -9 60 -4 62 -2 60 52 -1 15 -6 15 166 13 120 -2 150 -5
181 -21 45 -23 124 -102 140 -139 6 -14 37 -43 70 -65 40 -25 60 -45 60 -58 0
-21 16 -56 36 -75 24 -24 51 -79 64 -128 7 -27 25 -62 39 -78 33 -35 142 -115
202 -149 l46 -25 35 21 c66 40 76 56 77 128 1 53 25 64 110 49 36 -6 83 -13
104 -15 42 -5 41 -4 151 -91 64 -50 76 -64 76 -89 0 -18 10 -40 25 -56 15 -16
25 -39 27 -63 2 -32 13 -48 75 -109 54 -54 76 -84 88 -121 9 -27 28 -68 42
-91 15 -22 40 -70 56 -106 30 -68 78 -120 153 -165 39 -24 90 -37 194 -49 25
-3 75 -14 112 -25 37 -10 70 -16 72 -14 3 3 -3 19 -13 36 -10 18 -18 54 -18
82 -1 28 -9 75 -20 105 -15 45 -16 61 -7 89 14 43 -10 112 -36 103 -13 -5 -12
-2 1 14 18 20 34 60 38 94 0 6 7 10 15 10 17 0 46 43 46 69 0 16 11 22 60 32
55 11 61 14 69 43 6 22 4 36 -6 47 -13 15 -10 17 34 16 43 0 59 7 135 56 85
56 154 132 163 179 6 30 11 32 36 14 21 -14 25 -13 58 12 20 16 68 40 108 56
l71 27 40 -20 c30 -15 61 -21 124 -22 45 0 94 2 108 6 14 3 45 9 70 13 39 6
46 5 55 -13 6 -11 32 -27 58 -37 26 -10 72 -34 102 -52 l54 -35 11 35 c10 30
16 34 45 34 18 0 38 7 45 15 26 31 117 12 166 -36 32 -31 32 -31 58 -13 25 19
46 61 46 95 0 12 -10 21 -27 25 -15 4 -36 16 -48 27 -11 10 -29 22 -40 27 -19
7 -18 9 12 37 29 27 32 36 30 79 -2 43 -4 49 -23 46 -11 -1 -28 6 -37 16 -17
19 -16 20 35 43 44 20 70 24 158 25 58 0 122 4 143 8 33 6 37 5 37 -13 0 -18
6 -21 47 -21 35 0 58 8 95 32 60 38 97 39 160 3 80 -45 148 -62 244 -64 l91
-2 30 35 c17 19 33 40 35 47 3 10 15 9 54 -5 149 -56 339 -164 350 -199 4 -12
8 -53 9 -92 4 -115 16 -239 26 -250 6 -5 9 -3 9 7 0 8 6 21 14 28 8 6 17 19
19 28 4 18 -3 -49 -9 -85 -3 -16 10 -35 56 -75 34 -29 70 -53 82 -53 15 0 22
-8 25 -25 2 -14 11 -30 20 -37 9 -7 19 -29 22 -50 5 -28 14 -41 36 -53 53 -27
164 -120 180 -150 32 -61 97 -85 153 -56 56 30 79 66 97 160 19 98 20 122 10
216 -4 36 -8 74 -9 85 -1 11 -37 67 -80 125 -43 58 -91 133 -107 168 -16 35
-60 109 -98 166 -38 57 -77 120 -85 140 -9 21 -38 74 -65 119 -71 120 -112
239 -110 321 1 44 7 70 16 78 17 14 37 55 37 79 1 9 15 28 33 43 26 22 35 25
57 16 14 -5 26 -8 26 -7 0 2 -13 31 -30 65 -34 70 -36 80 -16 63 11 -9 16 -9
22 0 4 8 3 9 -4 5 -7 -4 -12 -3 -12 3 0 5 10 11 23 13 15 2 22 9 21 25 -1 16
10 27 41 43 35 18 45 30 55 64 9 31 19 45 43 56 28 13 32 21 34 55 2 68 24
110 81 155 29 23 66 46 81 51 26 9 29 15 34 75 4 49 12 77 38 119 34 56 36 57
130 80 15 4 45 26 69 50 l42 43 -27 36 c-17 23 -32 33 -42 29 -11 -4 -14 -2
-11 8 3 8 9 14 14 14 18 0 34 17 61 65 15 28 32 50 36 50 5 0 6 -20 3 -44 -5
-47 5 -64 36 -63 20 0 45 57 46 106 1 26 -11 48 -50 97 -29 35 -55 64 -60 64
-4 0 -8 15 -8 32 0 18 -12 56 -26 84 -22 43 -33 53 -65 63 -21 7 -39 14 -39
17 0 4 13 23 29 43 36 45 61 118 61 176 0 24 9 65 20 91 12 26 22 61 24 76 3
24 22 53 66 98 33 34 30 36 -34 27 -58 -9 -67 -8 -100 12 -49 31 -48 51 3 45
l40 -5 44 83 c40 73 62 142 60 188 -3 127 -1 120 -31 131 l-29 10 13 52 c20
76 32 96 93 153 46 43 66 54 125 69 39 11 86 20 105 21 41 2 70 35 71 82 0 34
9 39 40 22 15 -8 22 -6 32 9 8 10 30 22 49 25 20 3 55 15 77 27 39 21 41 24
36 58 -7 42 -52 98 -76 93 -21 -4 -32 -32 -18 -46 14 -14 13 -26 -3 -26 -14 0
-97 87 -97 102 0 4 -10 29 -22 54 -31 68 -26 191 13 269 19 38 97 141 148 196
14 15 21 36 21 62 0 37 1 39 25 33 22 -6 34 2 82 54 46 49 62 60 87 60 21 0
43 10 64 30 l33 30 -22 30 c-13 16 -29 30 -36 30 -22 0 -89 67 -108 110 -20
45 -25 47 -61 24 -15 -10 -29 -13 -34 -8 -4 5 -13 50 -20 99 -20 160 -55 253
-121 326 -24 26 -25 26 -64 10z m-2679 -1171 l47 -21 -22 -22 c-11 -13 -21
-31 -21 -40 0 -9 -4 -19 -10 -22 -5 -3 -10 -13 -10 -21 0 -24 -44 -80 -60 -77
-32 7 -105 -163 -130 -303 -10 -57 -9 -65 18 -125 76 -169 87 -336 27 -395 -8
-9 -15 -24 -15 -35 0 -25 -35 -59 -60 -59 -13 0 -31 19 -54 54 -29 46 -37 69
-46 148 -6 51 -14 116 -18 143 -7 51 -6 358 1 385 16 61 31 107 47 144 13 32
15 47 7 55 -18 18 -43 12 -57 -14 -7 -14 -15 -23 -17 -21 -6 5 27 129 36 139
4 4 20 -8 35 -28 15 -19 32 -35 38 -35 6 0 9 3 5 6 -3 4 3 24 13 44 14 28 28
40 50 45 17 4 42 18 56 32 15 14 40 29 58 33 17 5 32 8 33 9 1 1 23 -8 49 -19z
m2037 -1585 c32 -34 33 -38 32 -110 0 -41 -3 -76 -5 -77 -3 -2 -15 4 -27 13
-21 14 -21 15 -3 38 17 23 17 26 -8 75 -14 28 -29 58 -33 67 -7 15 -3 29 8 29
2 0 18 -16 36 -35z m30 -245 c-3 -11 -13 -20 -22 -20 -27 0 -33 12 -13 26 25
20 41 17 35 -6z"/>
</g>
</svg>
