<svg id="Capa_1" enable-background="new 0 0 512 512" height="512" viewBox="0 0 512 512" width="512" xmlns="http://www.w3.org/2000/svg"><g><path d="m7.776 318.867c-5.089-20.158-7.788-41.267-7.776-63.008.076-141.058 115.384-256.097 256.443-255.859 141.181.239 255.557 114.763 255.557 256 0 21.766-2.717 42.897-7.829 63.074-1.427 5.633-6.501 9.577-12.312 9.577h-471.547c-5.927 0-11.085-4.037-12.536-9.784z" fill="#5596fb"/><path d="m476.15 257.573c0 99.493-80.655 180.147-180.147 180.147s-180.147-80.655-180.147-180.147 80.654-180.147 180.147-180.147 180.147 80.654 180.147 180.147z" fill="#44bfd7"/><path d="m453.087 227.949c-7.265 2.16-13.834 6.195-19.046 11.699-10.607 11.202-26.385 15.893-41.39 12.308-7.372-1.762-15.078-1.552-22.344.609-14.787 4.397-30.797.571-41.998-10.036-5.504-5.212-12.282-8.883-19.655-10.645-15.005-3.586-26.956-14.903-31.354-29.691-2.16-7.265-6.195-13.834-11.699-19.046-11.202-10.607-15.893-26.385-12.308-41.39 1.762-7.372 1.552-15.078-.609-22.344-4.397-14.787-.571-30.797 10.036-41.998 5.212-5.504 8.883-12.282 10.645-19.655 3.586-15.005 14.903-26.956 29.691-31.354 7.265-2.16 13.834-6.195 19.046-11.699 10.607-11.202 26.385-15.893 41.39-12.308 7.372 1.762 15.078 1.552 22.344-.609 14.787-4.397 30.797-.571 41.998 10.036 5.504 5.212 12.282 8.883 19.655 10.645 15.005 3.586 26.956 14.903 31.354 29.691 2.16 7.265 6.195 13.834 11.699 19.046 11.202 10.607 15.893 26.385 12.308 41.39-1.762 7.372-1.552 15.078.609 22.344 4.397 14.787.571 30.797-10.036 41.998-5.212 5.504-8.883 12.282-10.645 19.655-3.586 15.005-14.904 26.957-29.691 31.354z" fill="#61362b"/><path d="m407.162 252.906c-4.785.5-9.688.202-14.511-.95-7.372-1.762-15.078-1.552-22.344.608-14.787 4.397-30.797.572-41.998-10.036-5.504-5.212-12.282-8.883-19.655-10.645-15.005-3.585-26.957-14.903-31.354-29.69-2.16-7.265-6.195-13.834-11.699-19.046-11.201-10.607-15.893-26.385-12.308-41.39 1.762-7.372 1.552-15.078-.609-22.344-4.397-14.787-.572-30.797 10.036-41.998 5.212-5.504 8.883-12.283 10.645-19.655 3.586-15.004 14.904-26.957 29.691-31.354 7.265-2.161 13.834-6.195 19.046-11.699 10.607-11.202 26.385-15.893 41.39-12.308 7.372 1.762 15.078 1.552 22.344-.609 7.754-2.306 15.844-2.35 23.401-.342-10.103 1.054-19.681 5.657-26.879 13.258-5.212 5.504-11.781 9.539-19.046 11.699-14.787 4.397-26.105 16.349-29.691 31.354-1.762 7.372-5.433 14.151-10.645 19.655-10.607 11.201-14.433 27.211-10.036 41.998 2.16 7.266 2.37 14.972.609 22.344-3.585 15.005 1.106 30.782 12.308 41.39 5.504 5.212 9.539 11.781 11.699 19.046 4.397 14.787 16.349 26.105 31.354 29.69 7.372 1.762 14.151 5.433 19.655 10.645 5.328 5.047 11.743 8.557 18.597 10.379z" fill="#4c2c21"/><path d="m216.433 40.851c12.651 16.938 20.142 37.956 20.142 60.723v70.426h-99.78s-35.125-90.298-1.794-90.298c33.33 0 62.911-16.054 81.432-40.851z" fill="#61362b"/><path d="m88.731 101.574v70.426h-55.305v-70.426c0-56.097 45.476-101.574 101.574-101.574h.287c7.561.021 10.221 10.073 3.7 13.898-30.067 17.638-50.256 50.299-50.256 87.676z" fill="#4c2c21"/><path d="m13.399 337.954c-2.226-6.59-4.19-13.301-5.881-20.12 1.386-29.142 25.452-52.343 54.937-52.343h27.731c-30.376 0-55 24.625-55 55v17.463z" fill="#0a4499"/><path d="m262.27 320.491v152.552h-137.916c-2.723 0-5.401-.76-7.684-2.244-23.399-15.209-44.158-34.138-61.438-55.949-.794-1.002-2.359-23.887-2.359-23.887 0-17.782-21.53-53.009-21.53-53.009v-17.463c0-30.376 24.624-55 55-55h120.927c30.375 0 55 24.624 55 55z" fill="#0956c6"/><path d="m67.177 165.954v7.963c0 10.995-8.913 19.908-19.907 19.908-10.995 0-19.907-8.913-19.907-19.908v-7.963c0-10.995 8.913-19.907 19.907-19.907 10.994-.001 19.907 8.912 19.907 19.907z" fill="#c38778"/><path d="m134.862 297.343c-13.194 0-23.889-10.695-23.889-23.889v-31.056c0-13.193 10.695-23.889 23.889-23.889 13.193 0 23.889 10.695 23.889 23.889v31.056c0 13.193-10.695 23.889-23.889 23.889z" fill="#b46e5a"/><path d="m39.307 161.972v15.926c0 6.512 3.127 12.294 7.961 15.926-10.994-.001-19.906-8.914-19.906-19.908v-7.963c0-10.994 8.912-19.907 19.906-19.907-4.834 3.632-7.961 9.414-7.961 15.926zm183.148-15.926v-15.926c0-48.376-39.217-87.592-87.593-87.592-48.376 0-87.593 39.216-87.593 87.592v31.852c0 48.376 39.216 87.593 87.593 87.593 37.448 0 69.406-23.5 81.935-56.557 1.793.531 3.692.816 5.657.816 10.995 0 19.907-8.913 19.907-19.908v-7.963c.001-10.994-8.912-19.907-19.906-19.907z" fill="#b46e5a"/><path d="m222.455 130.12v31.852c0 40.446-27.413 74.488-64.672 84.563-7.185 1.943-14.768 1.943-21.952 0-37.259-10.075-64.672-44.117-64.672-84.563v-31.852c0-44.325 32.923-80.959 75.648-86.785 42.725 5.826 75.648 42.461 75.648 86.785z" fill="#c38778"/><path d="m222.455 146.046v17.713c0 48.376-39.217 87.593-87.593 87.593-48.376 0-87.592-39.216-87.592-87.592v-17.713h.044c1.309 0 2.432.897 2.761 2.164 5.031 19.38 16.531 36.153 32.058 47.876 3.731 2.817 9.081.156 9.081-4.52 0-12.581 10.199-22.779 22.779-22.779h41.74c12.585 0 22.787 10.207 22.779 22.794-.003 4.691 5.337 7.332 9.081 4.505 15.515-11.714 27.009-28.471 32.046-47.832.335-1.293 1.481-2.209 2.816-2.209z" fill="#a65d4e"/><path d="m146.949 250.525c-3.951.545-7.986.827-12.087.827-48.376 0-87.592-39.216-87.592-87.592v-17.713h.035c1.314 0 2.442.901 2.772 2.173 4.305 16.577 13.343 31.246 25.586 42.478 10.168 31.492 37.684 55.189 71.286 59.827z" fill="#915041"/><path d="m123.316 167.332c-2.333-2.333-2.333-6.114 0-8.447 2.332-2.331 6.114-2.331 8.446 0 .83.83 1.93 1.287 3.1 1.287s2.27-.457 3.1-1.287c2.332-2.331 6.114-2.331 8.446 0 2.333 2.333 2.333 6.114 0 8.447-3.086 3.086-7.186 4.785-11.546 4.785s-8.46-1.699-11.546-4.785z" fill="#915041"/><path d="m108.982 136.093c0 6.597-5.348 11.944-11.944 11.944-6.597 0-11.944-5.348-11.944-11.944 0-6.597 5.348-11.944 11.944-11.944 6.597-.001 11.944 5.347 11.944 11.944zm63.704-11.945c-6.597 0-11.944 5.348-11.944 11.944 0 6.597 5.348 11.944 11.944 11.944 6.597 0 11.944-5.348 11.944-11.944.001-6.596-5.347-11.944-11.944-11.944z" fill="#4c2c21"/><path d="m110.973 130.12c0 3.298-2.674 5.972-5.972 5.972s-5.972-2.674-5.972-5.972 2.674-5.972 5.972-5.972 5.972 2.674 5.972 5.972zm69.676-5.972c-3.298 0-5.972 2.674-5.972 5.972s2.674 5.972 5.972 5.972 5.972-2.674 5.972-5.972-2.674-5.972-5.972-5.972z" fill="#fff5f5"/><path d="m55.232 337.954v76.897c-15.946-20.126-28.93-42.707-38.293-67.082-1.818-4.732 1.71-9.815 6.78-9.815z" fill="#b46e5a"/><path d="m62.687 341.935c0 3.298-2.674 5.972-5.972 5.972h-39.722c-1.514-3.936-2.934-7.918-4.257-11.944h43.979c3.298 0 5.972 2.674 5.972 5.972z" fill="#0a3575"/><path d="m249.73 395.023v-74.532c0-30.376 24.624-55 55-55h36.995l6.105 5.339h58.553l6.168-5.339h36.994c29.485 0 53.551 23.202 54.937 52.344-1.557 6.276-3.345 12.46-5.355 18.544-.628 1.902-2.421 3.175-4.424 3.175h-65.88c-21.706 0-42.126 10.29-55.041 27.735-12.915 17.445-33.336 27.735-55.041 27.735h-69.011z" fill="#dce6eb"/><path d="m495.047 347.803c-8.887 23.125-21.032 44.634-35.875 63.964-.778 1.014-2.405.451-2.405-.827v-72.987h31.476c5.088.001 8.629 5.101 6.804 9.85z" fill="#a65d4e"/><path d="m377.138 309.553c-19.558 0-35.413-15.855-35.413-35.413v-8.649h70.826v8.649c0 19.558-15.855 35.413-35.413 35.413zm122.126 26.41c-1.323 4.026-2.743 8.009-4.257 11.944h-39.722c-3.298 0-5.972-2.674-5.972-5.972s2.674-5.972 5.972-5.972z" fill="#c8d2dc"/><path d="m289.545 193.824c-10.995 0-19.907-8.913-19.907-19.907v-7.963c0-10.995 8.913-19.907 19.907-19.907 10.995 0 19.907 8.913 19.907 19.907v7.963c.001 10.994-8.912 19.907-19.907 19.907z" fill="#b46e5a"/><path d="m281.582 161.972v15.926c0 6.512 3.127 12.294 7.961 15.926-10.994-.001-19.906-8.914-19.906-19.908v-7.963c0-10.994 8.912-19.907 19.906-19.907-4.834 3.632-7.961 9.414-7.961 15.926zm183.148-15.926v-15.926c0-48.376-39.216-87.592-87.593-87.592-48.376 0-87.593 39.216-87.593 87.592v31.852c0 40.094 26.939 73.897 63.704 84.295v27.186c0 13.193 10.695 23.889 23.889 23.889 13.193 0 23.889-10.696 23.889-23.889v-27.186c26.744-7.564 48.288-27.513 58.046-53.259 1.793.531 3.692.816 5.658.816 10.995 0 19.907-8.913 19.907-19.908v-7.963c.001-10.994-8.912-19.907-19.907-19.907z" fill="#a65d4e"/><path d="m464.73 130.12v31.852c0 40.446-27.413 74.488-64.672 84.563-7.185 1.943-14.768 1.943-21.952 0-37.259-10.075-64.672-44.117-64.672-84.563v-31.852c0-44.325 32.923-80.959 75.648-86.785 42.726 5.826 75.648 42.461 75.648 86.785z" fill="#b46e5a"/><path d="m347.319 85.593c-28.086 9.421-49.898 31.779-57.774 59.681v-21.792c0-30.996 16.1-58.232 40.394-73.801 13.428-8.606 31.061.92 31.061 16.869 0 8.627-5.502 16.299-13.681 19.043z" fill="#ffcd71"/><path d="m464.73 123.482v21.792c-10.495-37.18-45.735-64.517-87.593-64.517-13.297 0-25.927 2.759-37.307 7.716-4.756 2.072-9.73 2.056-14.062.487 5.825-9.786 15.241-17.115 26.307-20.708 2.268-.736 2.003-4.042-.345-4.459-14.142-2.517-27.857.761-38.292 8.025-.002-.128-.004-.257-.004-.386v-.103c0-5.416 2.335-10.581 6.432-14.124 15.356-13.282 35.376-21.316 57.272-21.316 48.376 0 87.592 39.217 87.592 87.593z" fill="#ffd993"/><path d="m388.684 167.333c-3.086 3.085-7.186 4.785-11.546 4.785s-8.46-1.699-11.546-4.785c-2.333-2.333-2.333-6.114 0-8.447 2.332-2.331 6.114-2.331 8.446 0 .83.83 1.93 1.287 3.1 1.287 1.169 0 2.27-.458 3.1-1.287 2.332-2.331 6.114-2.331 8.446 0 2.332 2.333 2.332 6.114 0 8.447z" fill="#a65d4e"/><path d="m351.258 136.093c0 6.597-5.348 11.944-11.944 11.944-6.597 0-11.944-5.348-11.944-11.944 0-6.597 5.348-11.944 11.944-11.944 6.597-.001 11.944 5.347 11.944 11.944zm63.704-11.945c-6.597 0-11.944 5.348-11.944 11.944 0 6.597 5.348 11.944 11.944 11.944 6.597 0 11.944-5.348 11.944-11.944s-5.347-11.944-11.944-11.944z" fill="#4c2c21"/><path d="m353.249 130.12c0 3.298-2.674 5.972-5.972 5.972s-5.972-2.674-5.972-5.972 2.674-5.972 5.972-5.972 5.972 2.674 5.972 5.972zm69.676-5.972c-3.298 0-5.972 2.674-5.972 5.972s2.674 5.972 5.972 5.972 5.972-2.674 5.972-5.972-2.674-5.972-5.972-5.972z" fill="#fff5f5"/><path d="m459.93 410.776c-28.602 37.628-67.38 67.098-112.232 84.311-7.213 2.768-24.676 3.384-29.528-1.848-8.576-9.247-25.445-22.152-55.265-22.152h-60.147c.711-.776 1.442-1.54 2.193-2.292l142.67-142.67c27.727-27.727 72.682-27.727 100.409 0 22.93 22.931 26.897 57.644 11.9 84.651z" fill="#ffc14f"/><path d="m363.412 345.098-46.487 46.487c12.331 29.127 37.185 52.667 69.925 62.182l23.171 6.734c-11.088 8.364-22.878 15.847-35.265 22.345-38.483-11.471-63.687-46.345-64.567-84.525l-34.096 34.096c12.331 29.127 37.185 52.667 69.926 62.182l1.679.488c-7.213 2.768-14.582 5.22-22.092 7.337-.959.27-13.067-25.13-49.206-30.39-4.332-10.303-6.779-21.444-7.042-32.881l-31.935 31.935h-34.666c.711-.776 1.442-1.54 2.193-2.292l142.67-142.67c26.442-26.441 68.55-27.667 96.444-3.678-28.014-6.77-58.782.78-80.652 22.65z" fill="#ffb52d"/><path d="m442.882 418.04-9.264 9.264c-2.558 2.558-6.706 2.558-9.264 0-1.204-1.204-1.841-2.761-1.912-4.338-20.271 12.918-47.483 10.527-65.183-7.174-17.317-17.317-19.981-43.737-7.992-63.855-.453-.271-.881-.602-1.272-.992-2.558-2.558-2.558-6.706 0-9.264l9.264-9.264c2.558-2.558 6.706-2.558 9.264 0 .391.391.721.818.992 1.272 20.118-11.988 46.538-9.324 63.855 7.992 17.701 17.701 20.092 44.913 7.174 65.183 1.577.07 3.134.708 4.338 1.912 2.558 2.559 2.558 6.706 0 9.264z" fill="#b46e5a"/><path d="m431.37 415.793c-17.648 17.648-44.753 20.077-65.004 7.287-12.79-20.251-10.361-47.356 7.287-65.004s44.753-20.077 65.004-7.287c12.791 20.251 10.362 47.355-7.287 65.004z" fill="#c38778"/><path d="m395.143 359.866c-.055 2.17-1.858 3.884-4.029 3.83-2.729-.069-5.231-1.242-7.069-3.079-1.838-1.838-3.01-4.34-3.079-7.069-.055-2.17 1.66-3.974 3.829-4.029 2.17-.055 3.973 1.66 4.029 3.829.033 1.316 1.173 2.456 2.489 2.489 2.17.056 3.885 1.86 3.83 4.029zm-.148 20.68c-1.316-.034-2.456-1.173-2.489-2.489-.055-2.169-1.859-3.884-4.029-3.829s-3.884 1.858-3.829 4.029c.069 2.729 1.242 5.231 3.079 7.069 1.838 1.838 4.34 3.01 7.069 3.079 2.17.055 3.974-1.66 4.029-3.83.054-2.171-1.66-3.974-3.83-4.029zm28.537 7.71c.055-2.17-1.66-3.973-3.829-4.029-1.316-.033-2.456-1.173-2.489-2.489-.055-2.169-1.859-3.884-4.029-3.83-2.17.055-3.884 1.858-3.829 4.029.069 2.729 1.242 5.231 3.079 7.069 1.838 1.838 4.34 3.01 7.069 3.079 2.17.055 3.974-1.659 4.028-3.829z" fill="#a65d4e"/><path d="m370.742 331.918c19.647-9.896 42.85-9.348 61.295 9.097 17.921 17.921 18.993 41.648 9.097 61.295-3.759-15.082-12.64-30.817-26.107-44.285-13.468-13.467-29.203-22.348-44.285-26.107z" fill="#dce6eb"/><path d="m372.834 410.505-10.287-10.287c-5.71-5.71-5.71-14.967 0-20.677 5.71-5.71 14.967-5.71 20.677 0l10.287 10.287c5.71 5.71 5.71 14.967 0 20.677-5.71 5.71-14.967 5.71-20.677 0z" fill="#ffaee0"/><path d="m368.485 406.156-5.938-5.938c-5.71-5.71-5.71-14.967 0-20.677 5.71-5.71 14.967-5.71 20.677 0l5.938 5.938c-5.71-5.71-14.967-5.71-20.677 0-5.71 5.71-5.71 14.967 0 20.677z" fill="#ff94d2"/><path d="m398.176 344.239c13.604-3.336 29.72-.773 41.916 6.929 10.181 15.297 9.629 34.968 1.042 51.141-3.759-15.082-12.64-30.817-26.107-44.285-5.323-5.322-11-9.928-16.851-13.785zm-12.649 68.467c4.891-4.891 4.891-12.849 0-17.739l-7.443-7.443c-4.891-4.891-12.849-4.891-17.739 0-4.891 4.891-4.891 12.849 0 17.739l7.443 7.443c4.891 4.891 12.849 4.891 17.739 0zm-5.558-12.181c1.826 1.826 1.826 4.797 0 6.623s-4.797 1.826-6.623 0l-7.443-7.443c-1.826-1.826-1.826-4.797 0-6.623s4.797-1.826 6.623 0z" fill="#fff"/><path d="m325.606 502.423c-22.132 6.239-45.479 9.577-69.606 9.577-51.709 0-99.838-15.331-140.088-41.696 4.488-1.183 9.199-1.813 14.058-1.813h144.815c22.913 0 42.553 14.011 50.821 33.932z" fill="#5db33a"/><path d="m166.277 273.131v102.33h-71.139v-102.33c0-10.813 8.765-19.578 19.578-19.578h31.983c10.812 0 19.578 8.765 19.578 19.578z" fill="#4c2c21"/><path d="m305.138 273.131v102.33h-108.904v-102.33c0-10.813 8.765-19.578 19.578-19.578h69.748c10.813 0 19.578 8.765 19.578 19.578z" fill="#61362b"/><path d="m132.315 369.415v7.963c0 10.995-8.913 19.907-19.907 19.907-10.995 0-19.907-8.913-19.907-19.907v-7.963c0-10.995 8.913-19.908 19.907-19.908s19.907 8.913 19.907 19.908z" fill="#c38778"/><path d="m104.444 365.433v15.926c0 6.512 3.127 12.294 7.961 15.926-10.994 0-19.906-8.913-19.906-19.907v-7.963c0-10.994 8.912-19.907 19.906-19.908-4.833 3.632-7.961 9.414-7.961 15.926zm183.149-15.926v-15.926c0-48.376-39.217-87.593-87.593-87.593-48.376 0-87.593 39.217-87.593 87.593v31.852c0 40.094 26.939 73.896 63.704 84.295v27.187c0 13.193 10.696 23.889 23.889 23.889s23.889-10.695 23.889-23.889v-27.187c26.744-7.564 48.288-27.513 58.046-53.259 1.793.531 3.692.815 5.657.815 10.995 0 19.907-8.913 19.907-19.907v-7.963c.001-10.994-8.912-19.907-19.906-19.907z" fill="#b46e5a"/><path d="m287.593 333.581v31.852c0 40.445-27.412 74.488-64.672 84.563-7.185 1.942-14.768 1.942-21.952 0-37.259-10.075-64.672-44.118-64.672-84.563v-31.852c0-44.324 32.923-80.959 75.648-86.785 42.725 5.826 75.648 42.461 75.648 86.785z" fill="#c38778"/><path d="m188.454 370.793c-2.333-2.333-2.333-6.114 0-8.447 2.332-2.331 6.114-2.331 8.446 0 .83.83 1.93 1.287 3.1 1.287s2.27-.457 3.1-1.287c2.332-2.331 6.114-2.331 8.446 0 2.333 2.333 2.333 6.114 0 8.447-3.086 3.086-7.186 4.785-11.546 4.785s-8.46-1.699-11.546-4.785z" fill="#b46e5a"/><path d="m174.12 339.553c0 6.597-5.348 11.944-11.944 11.944-6.597 0-11.944-5.348-11.944-11.944 0-6.597 5.348-11.944 11.944-11.944 6.597 0 11.944 5.348 11.944 11.944zm63.704-11.944c-6.597 0-11.944 5.348-11.944 11.944 0 6.597 5.348 11.944 11.944 11.944 6.597 0 11.944-5.348 11.944-11.944.001-6.596-5.347-11.944-11.944-11.944z" fill="#4c2c21"/><path d="m176.111 333.581c0 3.298-2.674 5.972-5.972 5.972s-5.972-2.674-5.972-5.972 2.674-5.972 5.972-5.972 5.972 2.674 5.972 5.972zm69.676-5.972c-3.298 0-5.972 2.674-5.972 5.972s2.674 5.972 5.972 5.972 5.972-2.674 5.972-5.972-2.674-5.972-5.972-5.972z" fill="#fff5f5"/><path d="m134.862 217.713c-13.194 0-23.889-10.695-23.889-23.889 0-3.298 2.674-5.972 5.972-5.972h35.833c3.298 0 5.972 2.674 5.972 5.972.001 13.194-10.694 23.889-23.888 23.889zm242.276 0c-13.194 0-23.889-10.695-23.889-23.889 0-3.298 2.674-5.972 5.972-5.972h35.833c3.298 0 5.972 2.674 5.972 5.972.001 13.194-10.695 23.889-23.888 23.889zm-177.138 203.461c-13.194 0-23.889-10.695-23.889-23.889 0-3.298 2.674-5.972 5.972-5.972h35.833c3.298 0 5.972 2.674 5.972 5.972.001 13.193-10.695 23.889-23.888 23.889z" fill="#fff5f5"/><path d="m140.734 216.985c-1.879.475-3.846.728-5.872.728-13.193 0-23.889-10.695-23.889-23.889 0-3.298 2.674-5.973 5.972-5.973h11.745c-3.299 0-5.972 2.674-5.972 5.973 0 11.167 7.662 20.544 18.016 23.161zm224.26-23.161c0-3.298 2.674-5.973 5.972-5.973h-11.745c-3.298 0-5.972 2.674-5.972 5.973 0 13.193 10.695 23.889 23.889 23.889 2.026 0 3.993-.252 5.872-.728-10.354-2.617-18.016-11.994-18.016-23.161zm-177.138 203.461c0-3.298 2.674-5.972 5.972-5.972h-11.745c-3.298 0-5.972 2.674-5.972 5.972 0 13.194 10.696 23.889 23.889 23.889 2.026 0 3.994-.253 5.872-.728-10.354-2.617-18.016-11.994-18.016-23.161z" fill="#def4f8"/><path d="m216.319 241.003v9.97c0 8.284-6.716 15-15 15h-1.319v7.597c0 8.284-6.716 15-15 15h-31.144c-1.455 6.762-7.468 11.83-14.664 11.83h-29.054c-8.284 0-15-6.716-15-15l-.138-24.412c0-8.284 6.716-15 15-15h19.851v-4.985c0-8.284 6.716-15 15-15h56.468c8.285 0 15 6.716 15 15z" fill="#4c2c21"/><path d="m305 260.988v24.412c0 8.284-6.716 15-15 15h-29.192c-7.197 0-13.209-5.068-14.664-11.83h-92.016c-8.284 0-15-6.716-15-15v-12.582c0-8.284 6.716-15 15-15h30.503v-4.985c0-8.284 6.716-15 15-15h55.518c8.284 0 15 6.716 15 15v4.985h19.851c8.284 0 15 6.716 15 15z" fill="#61362b"/><path d="m137.491.031c54.145 1.347 54.145 82.925 0 84.272-.828.021-1.658.031-2.491.031-33.304 0-62.864-16.569-81.388-42.167 18.524-25.599 48.084-42.167 81.388-42.167.833 0 1.663.01 2.491.031z" fill="#4c2c21"/><path d="m216.433 40.851c-18.524 25.598-48.129 43.482-81.433 43.482-.833 0-1.663-.01-2.491-.031-54.145-1.347-54.145-82.925 0-84.272.828-.02 1.658-.03 2.491-.03 33.304 0 62.909 15.253 81.433 40.851z" fill="#61362b"/></g></svg>