<svg xmlns="http://www.w3.org/2000/svg" xmlns:xlink="http://www.w3.org/1999/xlink" height="682.667" viewBox="0 0 512 512" width="682.667" xmlns:v="https://vecta.io/nano"><style><![CDATA[.B{fill:#eab599}.C{fill:#3d4159}.D{fill:#f6caae}.E{fill:#bf8e75}.F{fill:#2a2f4f}.G{fill:#bfd5de}.H{fill:#d3a489}]]></style><path d="M512 256c0 37.867-8.223 73.813-22.977 106.152-25.223 55.285-69.539 100.016-124.512 125.785-9.957 4.66-20.27 8.703-30.887 12.066-11.941 3.816-24.262 6.75-36.906 8.766a.79.79 0 0 1-.168.023c-6.203.992-12.465 1.754-18.805 2.289l-4.066.313-5.77.324c-3.949.188-7.918.281-11.91.281-4.098 0-8.16-.094-12.203-.293l-5.488-.324-4.086-.301c-6.488-.543-12.914-1.34-19.254-2.363-3.031-.492-6.051-1.023-9.039-1.621-12.969-2.57-25.57-6.109-37.742-10.562-7.055-2.57-13.961-5.445-20.711-8.609-2.297-1.078-4.586-2.195-6.855-3.355-5.828-2.945-11.523-6.113-17.082-9.488-27.848-16.863-52.215-38.891-71.797-64.75-11.754-15.527-21.773-32.434-29.777-50.449C7.848 328.141 0 292.988 0 256 0 114.613 114.613 0 256 0s256 114.613 256 256zm0 0" fill="#ffe152"/><path d="M205.93 332.215v174.883c-12.969-2.57-25.57-6.109-37.742-10.562-7.055-2.57-13.961-5.445-20.711-8.609-2.297-1.078-4.586-2.195-6.855-3.355-5.828-2.945-11.523-6.113-17.082-9.488-27.848-16.863-52.215-38.891-71.797-64.75-11.754-15.527-21.773-32.434-29.777-50.449v-27.668c0-32.098 21.797-59.109 51.398-67.02 1.086-.293 2.172-.566 3.281-.793a67.01 67.01 0 0 1 9.027-1.34c1.871-.145 3.762-.23 5.672-.23h45.191c5.047 0 9.969.535 14.715 1.57.27.051.543.113.813.176.797.18 1.602.375 2.383.586.023.012.043.012.063.02 7.816 2.09 15.078 5.508 21.547 10 18.055 12.527 29.875 33.395 29.875 57.031zm0 0" fill="#2ba1cf"/><path d="M205.93 332.215v174.883c-12.969-2.57-25.57-6.109-37.742-10.562-7.055-2.57-13.961-5.445-20.711-8.609-2.297-1.078-4.586-2.195-6.855-3.355-5.828-2.945-11.523-6.113-17.082-9.488-27.848-16.863-52.215-38.891-71.797-64.75v-78.117c0-32.098 21.797-59.109 51.398-67.02 1.09-.293 2.176-.566 3.281-.793 2.938-.648 5.957-1.09 9.027-1.34 1.871-.145 3.762-.23 5.676-.23h15.41c5.047 0 9.969.535 14.715 1.57.27.051.543.113.813.176.797.18 1.602.375 2.383.586.023.012.043.012.063.02 7.816 2.09 15.078 5.508 21.547 10 18.055 12.527 29.875 33.395 29.875 57.031zm0 0" fill="#66baed"/><path d="M154.68 264.398l-.164.785-20.758 96.543c-1.992 9.277-10.156 16.004-19.641 16.012h-.168-.184c-9.488-.008-17.648-6.734-19.641-16.012l-20.758-96.535-.164-.793zm0 0" fill="#f2f0ec"/><g fill="#d8d5d0"><path d="M113.941 291.238l-31.238 17.359-9.5-44.199 19.41-11.43"/><path d="M113.941 291.238l31.238 17.359 9.5-44.199-19.41-11.43"/></g><path d="M20.676 246.109V141.469c0-10.633 1.773-21.051 5.273-30.965 13.098-37.266 48.461-62.312 87.996-62.312 4.898 0 9.785.379 14.535 1.129 21.719 3.395 41.648 14.48 56.098 31.219 14.602 16.918 22.645 38.555 22.645 60.93v104.641" fill="#cc7a3b"/><path d="M59.043 145.555c0 37.012 21.676 79.832 33.578 100.555H20.672V141.469c0-10.629 1.777-21.047 5.273-30.965 13.02-37.051 48.059-62.023 87.32-62.305-28.676.715-54.223 46.723-54.223 97.355zm0 0" fill="#a35418"/><path d="M138.703 236.105v30.383c0 11.121-7.332 20.523-17.434 23.645-2.312.719-4.777 1.105-7.324 1.105a24.75 24.75 0 0 1-24.75-24.75v-30.383zm0 0" class="B"/><path d="M138.703 264.563v1.926c0 11.121-7.332 20.523-17.434 23.645-9.113-2.801-15.965-10.727-17.23-20.422a81.29 81.29 0 0 0 4.984.152c4.684 0 9.277-.371 13.746-1.105 5.512-.887 10.84-2.305 15.934-4.195zm-92.66-78.247c0 11.461-8.371 20.965-19.336 22.727a22.88 22.88 0 0 1-3.687.297C10.305 209.34 0 199.035 0 186.316a23.02 23.02 0 0 1 23.02-23.02 22.88 22.88 0 0 1 3.688.297c10.965 1.762 19.336 11.262 19.336 22.723zm0 0" class="D"/><g class="B"><path d="M46.043 186.316c0 11.461-8.371 20.965-19.336 22.727-1.988-7.238-3.055-14.859-3.055-22.727s1.066-15.484 3.055-22.723c10.965 1.762 19.336 11.262 19.336 22.723zm0 0"/><path d="M31.25 186.316a8.23 8.23 0 0 1-8.23 8.23 8.23 8.23 0 0 1-8.227-8.23 8.23 8.23 0 0 1 8.227-8.227 8.23 8.23 0 0 1 8.23 8.227zm0 0"/><path d="M173.059 156.922v79.133c-12.23 11.676-27.914 19.762-45.363 22.574l-.422.07c-4.336.691-8.785 1.035-13.328 1.035-47.301 0-85.648-38.348-85.648-85.648v-32.617a86.31 86.31 0 0 1 .875-12.301c20.379 14.656 49.598 13.207 68.215-4.387 6.164-5.824 10.449-12.758 12.871-20.113 1.348 12.879 7.238 25.414 17.68 35.285 12.43 11.734 28.852 17.395 45.121 16.969zm0 0"/></g><path d="M173.059 156.922v79.133c-12.23 11.676-27.914 19.762-45.363 22.574l-.422.07c-40.969-6.402-72.305-41.855-72.305-84.613v-32.617c0-.867.016-1.73.047-2.59 15.102 1.547 30.789-3.148 42.371-14.102 6.164-5.82 10.449-12.758 12.871-20.109 1.348 12.879 7.238 25.414 17.68 35.285 12.43 11.734 28.852 17.395 45.121 16.969zm0 0" class="D"/><path d="M159.949 166.852a14.23 14.23 0 0 0-14.227-14.227 14.23 14.23 0 0 0-14.227 14.227m-35.085 0a14.23 14.23 0 0 0-14.227-14.227c-7.855 0-14.223 6.367-14.223 14.227" class="B"/><path d="M91.902 172.906a9.72 9.72 0 0 1-9.719 9.719 9.72 9.72 0 0 1-9.715-9.719c0-5.367 4.348-9.715 9.715-9.715a9.72 9.72 0 0 1 9.719 9.715zm63.536 0a9.72 9.72 0 0 1-9.715 9.719 9.72 9.72 0 0 1-9.715-9.719c0-5.367 4.348-9.715 9.715-9.715s9.715 4.348 9.715 9.715zm0 0" class="C"/><path d="M123.672 197.371h-19.434c-2.316 0-4.191-1.879-4.191-4.191s1.875-4.191 4.191-4.191h19.434c2.313 0 4.188 1.879 4.188 4.191s-1.875 4.191-4.187 4.191zm-9.719 26.52c-7.172 0-14.344-1.797-20.883-5.395a3.81 3.81 0 0 1-1.504-5.172c1.016-1.844 3.332-2.516 5.176-1.504 10.777 5.926 23.645 5.926 34.422 0a3.81 3.81 0 0 1 3.672 6.676c-6.539 3.598-13.711 5.395-20.883 5.395zm0 0" class="B"/><path d="M89.922 171.191c0 2.301-1.867 4.164-4.164 4.164s-4.164-1.863-4.164-4.164 1.863-4.164 4.164-4.164 4.164 1.863 4.164 4.164zm64.012 0c0 2.301-1.863 4.164-4.16 4.164s-4.164-1.863-4.164-4.164 1.863-4.164 4.164-4.164a4.16 4.16 0 0 1 4.16 4.164zm0 0" fill="#fff"/><path d="M172.25 196.574c0 5.891-4.777 10.668-10.672 10.668a10.67 10.67 0 0 1-10.668-10.668c0-5.895 4.777-10.672 10.668-10.672s10.672 4.777 10.672 10.672zm-95.262 0a10.67 10.67 0 0 1-10.668 10.668 10.67 10.67 0 0 1-10.668-10.668c0-5.895 4.777-10.672 10.668-10.672a10.67 10.67 0 0 1 10.668 10.672zm0 0" class="B"/><path d="M489.023 330.105v32.047c-25.223 55.285-69.539 100.016-124.512 125.785-9.957 4.66-20.27 8.703-30.887 12.066-11.941 3.816-24.262 6.75-36.906 8.766a.79.79 0 0 1-.168.023V330.105c0-38.086 29.332-69.332 66.656-72.34a69.55 69.55 0 0 1 5.934-.238h47.273c5.59 0 11.031.613 16.258 1.816 32.266 7.375 56.352 36.27 56.352 70.762zm0 0" class="G"/><path d="M489.023 330.105v32.047c-25.223 55.285-69.539 100.016-124.512 125.785-9.957 4.66-20.27 8.703-30.887 12.066V330.105c0-40.082 32.508-72.578 72.602-72.578h10.195c40.105 0 72.602 32.496 72.602 72.578zm0 0" fill="#dde8ed"/><path d="M321.734 177.465c0 11.992-8.758 21.934-20.227 23.777a24.12 24.12 0 0 1-3.859.309c-13.305 0-24.086-10.781-24.086-24.086s10.781-24.086 24.086-24.086a24.12 24.12 0 0 1 3.859.309c11.469 1.848 20.227 11.789 20.227 23.777zm0 0" class="H"/><g fill="#f74f4f"><path d="M412.273 283.711l-19.488 31.258-19.488-31.258"/><path d="M419.004 403.266l-26.219 33.086-26.223-33.086 26.227-96.43zm0 0"/></g><g class="E"><path d="M321.734 177.465c0 11.992-8.758 21.934-20.227 23.777a89.59 89.59 0 0 1-3.195-23.777c0-8.227 1.113-16.199 3.195-23.777 11.469 1.848 20.227 11.789 20.227 23.777zm0 0"/><path d="M306.258 177.465c0 4.754-3.855 8.609-8.609 8.609a8.61 8.61 0 0 1-8.605-8.609c0-4.754 3.852-8.605 8.605-8.605a8.61 8.61 0 0 1 8.609 8.605zm0 0"/></g><g class="G"><path d="M392.777 287.238l-32.68 18.164-9.941-46.246 20.305-11.961"/><path d="M392.777 287.238l32.684 18.164 9.941-46.246-20.309-11.961"/></g><path d="M463.828 177.465c0 11.992 8.758 21.934 20.227 23.777a24.12 24.12 0 0 0 3.859.309c13.305 0 24.086-10.781 24.086-24.086s-10.781-24.086-24.086-24.086a24.12 24.12 0 0 0-3.859.309c-11.469 1.848-20.227 11.789-20.227 23.777zm0 0" class="H"/><g class="E"><path d="M463.828 177.465c0 11.992 8.758 21.934 20.227 23.777 2.086-7.574 3.195-15.547 3.195-23.777s-1.109-16.199-3.195-23.777c-11.469 1.848-20.227 11.789-20.227 23.777zm0 0"/><path d="M496.523 177.465c0 4.754-3.855 8.609-8.609 8.609s-8.609-3.855-8.609-8.609a8.61 8.61 0 0 1 8.609-8.605 8.61 8.61 0 0 1 8.609 8.605zm0 0"/><path d="M482.398 164.664c0 44.594-32.578 81.59-75.234 88.457-4.676.77-9.48 1.156-14.383 1.156-49.496 0-89.613-40.117-89.613-89.613 0-23.418 8.133-58.574 22.84-74.539 16.375-17.777 40.695-15.078 66.773-15.078a88.56 88.56 0 0 1 14.383 1.16c42.656 6.867 75.234 43.859 75.234 88.457zm0 0"/><path d="M418.684 229.559v31.785c0 11.637-7.672 21.473-18.242 24.738a25.85 25.85 0 0 1-7.664 1.156 25.9 25.9 0 0 1-25.895-25.895v-31.785zm0 0"/></g><path d="M418.684 259.328v2.016c0 11.637-7.672 21.473-18.242 24.738a25.89 25.89 0 0 1-18.027-21.367 85.73 85.73 0 0 0 5.219.16c4.898 0 9.703-.391 14.383-1.156a88.09 88.09 0 0 0 16.668-4.391zm63.714-94.664c0 44.594-32.578 81.59-75.234 88.457-42.652-6.867-75.23-43.863-75.23-88.457 0-27.461 12.352-52.039 31.809-68.48 12.133-10.258 27.035-17.34 43.422-19.98 39.766 6.402 70.785 39 74.793 79.523a90.2 90.2 0 0 1 .441 8.938zm0 0" class="H"/><path d="M392.785 208.801c-7.508 0-15.008-1.879-21.848-5.641a3.98 3.98 0 0 1-1.574-5.414c1.059-1.93 3.484-2.633 5.414-1.57 11.273 6.195 24.738 6.195 36.016 0a3.98 3.98 0 0 1 5.41 1.57c1.063 1.93.359 4.355-1.57 5.414-6.84 3.762-14.348 5.641-21.848 5.641zm0 0" class="E"/><path d="M373.699 159.449a10.17 10.17 0 0 1-10.168 10.164c-5.617 0-10.164-4.551-10.164-10.164a10.17 10.17 0 0 1 10.164-10.168 10.17 10.17 0 0 1 10.168 10.168zm58.5 0c0 5.613-4.551 10.164-10.164 10.164a10.17 10.17 0 0 1-10.168-10.164 10.17 10.17 0 0 1 10.168-10.168 10.17 10.17 0 0 1 10.164 10.168zm0 0" class="C"/><g fill="#fff"><use xlink:href="#B"/><use xlink:href="#B" x="59"/></g><path d="M402.949 185.043h-20.332a4.39 4.39 0 0 1-4.387-4.387c0-2.422 1.965-4.383 4.387-4.383h20.332c2.422 0 4.387 1.961 4.387 4.383a4.39 4.39 0 0 1-4.387 4.387zm0 0" class="E"/><path d="M422.289 327.727h39.066v11.957h-39.066zm0 0" class="G"/><path d="M387.539 49.449c27.148 1.938 48.945 23.867 50.324 51.473l.258 5.184h15.617l8.41 55.93 20.371-6.305-2.734-54.805c-1.445-29-25.43-51.727-54.453-51.617zm0 0" class="F"/><g class="C"><path d="M478.059 27.816c21.617 21.617 21.617 56.668 0 78.285s-56.668 21.617-78.285 0zm0 0"/><path d="M399.773 106.102h-67.937l-8.414 55.934-20.371-6.305 2.73-54.809c1.445-28.992 25.43-51.727 54.457-51.617l98.121.371 12.973 23.348"/></g><path d="M398.027 49.449c-27.148 1.938-48.945 23.867-50.324 51.473l-.258 5.184h-15.613l-8.414 55.93-20.371-6.305 2.734-54.805c1.445-29 25.43-51.727 54.453-51.617zm0 0" class="F"/><path d="M364.512 468.742v19.195C331.566 503.371 294.797 512 256 512s-75.578-8.629-108.523-24.074v-19.184c0-37.879 25.715-69.738 60.645-79.078 1.277-.344 2.563-.66 3.867-.941 3.469-.754 7.031-1.273 10.648-1.566a82.69 82.69 0 0 1 6.699-.273h53.309c5.965 0 11.766.629 17.367 1.84.324.063.648.137.961.211.941.219 1.879.449 2.809.699.035.008.043.008.074.02 9.219 2.465 17.797 6.5 25.414 11.797 21.305 14.777 35.242 39.402 35.242 67.293zm0 0" class="C"/><path d="M304.055 388.723l-.199.93-26.109 121.43-4.066.313-5.77.324c-3.949.188-7.918.281-11.91.281-4.098 0-8.16-.094-12.203-.293l-5.488-.324-4.086-.301-26.102-121.418-.195-.941zm0 0" fill="#66baed"/><g class="C"><path d="M277.969 416.422l-21.977 35.242-21.973-35.242"/><path d="M273.68 511.395l-5.77.324c-3.949.188-7.918.281-11.91.281-4.098 0-8.16-.094-12.203-.293l-5.488-.324L256 442.492zm0 0"/></g><g fill="#2ba1cf"><path d="M255.988 420.395l-36.855 20.48-11.211-52.145 22.898-13.488"/><path d="M255.988 420.395l36.852 20.48 11.211-52.145-22.898-13.488"/></g><path d="M305.445 459.098h11.691l-20.418 49.672a254.41 254.41 0 0 1-28.809 2.949l35.871-122.086.273-.91 25.215 8.234zm-61.648 52.609a253.59 253.59 0 0 1-28.828-2.988l-20.398-49.621h11.691l-23.832-62.141 25.223-8.234.273.91zm0 0" class="F"/><path d="M285.199 355.352v35.84c0 13.125-8.652 24.215-20.57 27.898-2.73.848-5.637 1.305-8.645 1.305-16.129 0-29.199-13.074-29.199-29.203v-35.84zm0 0" class="B"/><path d="M285.199 388.922v2.273c0 13.121-8.652 24.211-20.57 27.898-10.754-3.309-18.84-12.656-20.332-24.098 1.953.121 3.914.18 5.883.18 5.527 0 10.945-.437 16.219-1.301a99.53 99.53 0 0 0 18.801-4.953zm-109.324-92.313c0 13.52-9.879 24.73-22.812 26.813-1.414.227-2.867.348-4.348.348-15.004 0-27.164-12.156-27.164-27.16s12.156-27.164 27.164-27.164a27.02 27.02 0 0 1 4.348.352c12.934 2.082 22.813 13.293 22.813 26.813zm0 0" class="D"/><g class="B"><path d="M175.875 296.609c0 13.52-9.879 24.73-22.812 26.813-2.348-8.543-3.602-17.535-3.602-26.812s1.254-18.27 3.602-26.812c12.934 2.082 22.813 13.293 22.813 26.813zm0 0"/><path d="M158.422 296.609a9.71 9.71 0 0 1-9.707 9.707 9.71 9.71 0 0 1-9.707-9.707c0-5.363 4.344-9.707 9.707-9.707a9.71 9.71 0 0 1 9.707 9.707zm0 0"/></g><path d="M336.105 296.609c0 13.52 9.879 24.73 22.813 26.813a27.44 27.44 0 0 0 4.348.348c15.004 0 27.164-12.156 27.164-27.16s-12.156-27.164-27.164-27.164c-1.48 0-2.937.121-4.348.352-12.934 2.082-22.812 13.293-22.812 26.813zm0 0" class="D"/><g class="B"><path d="M336.105 296.609c0 13.52 9.879 24.73 22.813 26.813 2.348-8.543 3.602-17.535 3.602-26.812s-1.254-18.27-3.602-26.812c-12.934 2.082-22.812 13.293-22.812 26.813zm0 0"/><path d="M357.047 243.695v38.48c0 50.289-36.738 92.004-84.84 99.746l-.492.082c-5.117.82-10.367 1.223-15.727 1.223-55.809 0-101.047-45.242-101.047-101.047v-38.484c0-11.75 2.004-23.043 5.707-33.535 13.82-39.328 51.293-67.523 95.34-67.523h.008c5.352 0 10.609.414 15.734 1.223 48.336 7.551 85.316 49.379 85.316 99.836zm0 0"/><path d="M372.973 296.609a9.71 9.71 0 0 1-9.707 9.707 9.71 9.71 0 0 1-9.707-9.707 9.71 9.71 0 0 1 9.707-9.707c5.363 0 9.707 4.344 9.707 9.707zm0 0"/></g><path d="M357.043 243.695v38.48c0 50.285-36.734 92.004-84.836 99.746l-.496.082c-48.332-7.555-85.305-49.379-85.305-99.828v-38.48c0-50.457 36.98-92.285 85.324-99.836 48.336 7.551 85.313 49.379 85.313 99.836zm0 0" class="D"/><path d="M234.469 276.289c0 6.332-5.133 11.465-11.461 11.465a11.47 11.47 0 0 1-11.465-11.465c0-6.332 5.133-11.461 11.465-11.461s11.461 5.133 11.461 11.461zm65.972 0c0 6.332-5.133 11.465-11.465 11.465s-11.465-5.133-11.465-11.465 5.133-11.461 11.465-11.461 11.465 5.133 11.465 11.461zm0 0" class="C"/><path d="M232.133 274.27c0 2.711-2.199 4.91-4.914 4.91a4.91 4.91 0 0 1-4.91-4.91c0-2.711 2.199-4.914 4.91-4.914s4.914 2.199 4.914 4.914zm66.531 0a4.91 4.91 0 0 1-4.91 4.91c-2.711 0-4.914-2.199-4.914-4.91s2.199-4.914 4.914-4.914a4.91 4.91 0 0 1 4.91 4.914zm0 0" fill="#fff"/><path d="M267.457 300.66h-22.93a4.95 4.95 0 0 1-4.945-4.945c0-2.734 2.215-4.945 4.945-4.945h22.93c2.73 0 4.945 2.211 4.945 4.945a4.95 4.95 0 0 1-4.945 4.945zm-11.465 31.285c-8.461 0-16.926-2.121-24.637-6.363a4.49 4.49 0 0 1-1.773-6.102 4.5 4.5 0 0 1 6.105-1.777c12.715 6.992 27.895 6.992 40.609 0 2.176-1.195 4.91-.402 6.105 1.777a4.49 4.49 0 0 1-1.773 6.102c-7.715 4.242-16.176 6.363-24.637 6.363zm0 0" class="B"/><path d="M357.047 208.773v39.418h-18.809V217.32l-135.766-25.227-28.727-5.34v61.438h-18.809V208.77c0-44.937 36.422-81.359 81.352-81.359h39.406c1.07 0 2.141.02 3.211.074 43.434 1.672 78.141 37.422 78.141 81.289zm0 0" class="F"/><path d="M357.047 208.773v39.418h-18.809V217.32l-135.766-25.227c7.48-35.93 38.652-63.152 76.434-64.609 43.434 1.672 78.141 37.422 78.141 81.289zm0 0" class="C"/><defs ><path id="B" d="M371.625 157.652a4.36 4.36 0 0 1-4.355 4.359 4.36 4.36 0 0 1-4.355-4.359 4.36 4.36 0 0 1 4.355-4.355 4.36 4.36 0 0 1 4.355 4.355zm0 0"/></defs></svg>