<?xml version="1.0" encoding="iso-8859-1"?>
<!-- Generator: Adobe Illustrator 19.0.0, SVG Export Plug-In . SVG Version: 6.00 Build 0)  -->
<svg version="1.1" id="Layer_1" xmlns="http://www.w3.org/2000/svg" xmlns:xlink="http://www.w3.org/1999/xlink" x="0px" y="0px"
	 viewBox="0 0 496.2 496.2" style="enable-background:new 0 0 496.2 496.2;" xml:space="preserve">
<path style="fill:#25B7D3;" d="M496.2,248.1C496.2,111.1,385.1,0,248.1,0S0,111.1,0,248.1s111.1,248.1,248.1,248.1
	S496.2,385.1,496.2,248.1z"/>
<path style="fill:#A3D5E0;" d="M406.8,82.1c-0.5-0.3-1.1-0.4-1.6-0.2l-77,24.9c-1,0.3-1.5,1.3-1.3,2.3l14.5,72.1
	c-2.7-0.3-5.5-0.1-8.3,0.6c-1.3,0.3-2.7,0.8-4,1.3c-5.7,2.2-10,5.8-12.9,10.5c-2.9,4.9-3.5,9.8-1.5,14.6c1.9,4.7,5.7,7.9,11.2,9.6
	c4.1,1.2,8.4,1.3,12.6,0.3c1.2-0.3,2.5-0.7,3.8-1.2c5-2.1,9-5.1,11.8-9.1c2.8-4.1,4-8.4,3.5-12.8c0-0.1,0-0.2,0-0.2l-0.1-0.6
	c-0.4-2.4-1.7-9-3.9-20.2c-2.2-11.1-4.3-21.8-6.3-31.9l-2.6-13.4l56-19.7l8.9,48.4c-3-0.4-6.1-0.3-9.2,0.5c-1.3,0.3-2.6,0.7-3.8,1.2
	c-5.7,2.2-10,5.8-12.8,10.6c-2.8,5-3.3,9.9-1.5,14.6c1.9,4.7,5.6,7.9,11.1,9.5c4.1,1.2,8.3,1.2,12.6,0.2c1.3-0.3,2.6-0.7,3.9-1.3
	c5.1-2.1,9-5.2,11.9-9.4c2.9-4.3,3.9-8.7,3-13.1c-0.4-2.5-6-30.9-17-86.9C407.7,82.9,407.3,82.4,406.8,82.1z"/>
<rect x="97.869" y="48.274" transform="matrix(-0.7257 -0.688 0.688 -0.7257 104.675 249.4784)" style="fill:#151B1E;" width="8.4" height="111.199"/>
<path style="fill:#212223;" d="M288,360.3l-91,3.2l-1.5,37.8c0,0,2.6,44.6,4.8,90.3c11.3,2.2,22.8,3.6,34.5,4.3l8-90.1l5.3,0.3
	l16.4,89.5c11-0.7,21.8-2.2,32.3-4.3l-5.2-98.5L288,360.3z"/>
<path style="fill:#E2AF8D;" d="M87.3,148.5c0,0,5.6-7.8,5-14c0,0,2.9-11.1,0.3-8.9c-2.6,2.2-3.7,7.5-4.8,8.2s-12.3-19.5-12.3-19.5
	s-2.3-2.2-3,0.2c-0.2,0.6-0.4,1.6-0.4,1.6c-1-0.4-1.7-0.1-1.9,1.4c-0.2,2,0.9,5.5,0.9,5.5s-3.2-1.3-2.7,1.8s9.8,37,11.7,39.9
	c1.1,1.7,9.6-3.8,10.1-7.3C90.6,155.9,87.3,148.5,87.3,148.5z"/>
<path style="fill:#151B1E;" d="M92.2,149.8c0,0,27.1,45.1,39.1,64.3c0,0,71.2,0.1,77.7,3.6l-19.8,47.4c0,0-77-19.9-86.7-28
	c0,0-18.7-34.1-25.6-69.6L92.2,149.8z"/>
<path style="fill:#E2AF8D;" d="M437.3,260.8c0,0,5.4-7.9,11.5-9.6c0,0,9.4-6.5,8.2-3.3c-1.2,3.2-5.8,6.1-6.1,7.3
	c-0.3,1.2,22.5,4.9,22.5,4.9s2.8,1.4,0.8,2.9c-0.5,0.4-1.4,0.9-1.4,0.9c0.7,0.8,0.7,1.6-0.7,2.2c-1.9,0.9-5.5,1-5.5,1
	s2.4,2.5-0.7,3.1s-28,3.2-31.5,2.4c-2-0.5-9.4-8.8-6.3-10.5C429.5,261.6,437.3,260.8,437.3,260.8z"/>
<g>
	<path style="fill:#151B1E;" d="M437.4,260.6c0,0-61,5.3-82.3,12.8c0,0-69.7-54.5-77-55.8l7.3,52.3c0,0,51.3,29.4,64,29.1
		c0,0,52.2,0.1,89-15.1L437.4,260.6z"/>
	<path style="fill:#151B1E;" d="M297.9,262.1l-19.8-44.7h-70.3l-22.7,44.7c0,0-9.4,100.2-10.5,105.7c0,0,124.6,6.6,139.7-3
		L297.9,262.1z"/>
</g>
<path style="fill:#DFE3E5;" d="M257.7,217.5l-30.1-0.1c-0.9,2.4-6.4,127.3-6.8,132.8l47.9,1.2C268.7,351.5,258.6,219.9,257.7,217.5z
	"/>
<rect x="220.8" y="350.2" style="fill:#212223;" width="47.9" height="29.3"/>
<path style="fill:#151B1E;" d="M241.8,119.6c-43.6,0-45.1,26.2-39,52.4c1.3,5.6,19.5,29.2,39,29.2s37.5-23.7,39-29.2
	c6.5-23.2,3.6-46.8-26.4-51.5c-2.4-0.4-6.1,1-7.9,3.7C246.6,124.2,243.5,119.6,241.8,119.6z"/>
<path style="fill:#38281F;" d="M242.1,239.7c0.1,0,0.1,0,0.2,0C242.2,239.7,242.1,239.7,242.1,239.7L242.1,239.7z"/>
<g>
	<polygon style="fill:#E2AF8D;" points="257.5,217.7 227.7,217.6 231.5,201.6 252.7,201.6 	"/>
	<path style="fill:#E2AF8D;" d="M269.9,162.2c0,9-2.5,24-6.5,30.5c-3.5,5.6-13.3,15.2-21.3,15.2c-7.9,0-18-10.5-21.1-14.9
		c-4.4-6.2-6.6-21.6-6.6-30.7c0-20.3,12.4-27.9,27.8-27.9C257.5,134.3,269.9,141.9,269.9,162.2z"/>
</g>
<polygon style="fill:#334D5C;" points="255.4,233.1 242.3,227.8 229.2,233.1 229.2,220.7 242.3,225.9 255.4,220.7 "/>
<rect x="185.392" y="290.618" transform="matrix(-0.0144 -0.9999 0.9999 -0.0144 -44.4365 538.436)" style="fill:#6B6B6B;" width="115.5" height="1"/>
<g>
	<circle style="fill:#CFD2D3;" cx="245.6" cy="235.2" r="1.5"/>
	<circle style="fill:#CFD2D3;" cx="245.9" cy="249.3" r="1.5"/>
	<circle style="fill:#CFD2D3;" cx="246.5" cy="263.2" r="1.5"/>
	<circle style="fill:#CFD2D3;" cx="246.7" cy="276.5" r="1.5"/>
	<circle style="fill:#CFD2D3;" cx="247.5" cy="290.6" r="1.5"/>
	<circle style="fill:#CFD2D3;" cx="248.2" cy="306" r="1.5"/>
	<circle style="fill:#CFD2D3;" cx="248.8" cy="320.4" r="1.5"/>
	<circle style="fill:#CFD2D3;" cx="249.6" cy="334.6" r="1.5"/>
</g>
<g>
	<path style="fill:#4E5456;" d="M257.7,218.2c0.5,1.4,4.1,45.1,7,82.1c15.5-17.6,10.4-69.5,8.8-82.9h-15.9
		C257.5,217.4,257.5,217.6,257.7,218.2z"/>
	<path style="fill:#4E5456;" d="M223.1,301.1c1.7-37,4.1-82.4,4.6-83.8c0.2-0.6-14.1,0.2-14.1,0.2C212,231,206.7,284.2,223.1,301.1z
		"/>
</g>
<g>
</g>
<g>
</g>
<g>
</g>
<g>
</g>
<g>
</g>
<g>
</g>
<g>
</g>
<g>
</g>
<g>
</g>
<g>
</g>
<g>
</g>
<g>
</g>
<g>
</g>
<g>
</g>
<g>
</g>
</svg>
